<svg width="153" height="111" viewBox="0 0 153 111" fill="none" xmlns="http://www.w3.org/2000/svg">
<path d="M151.11 51.2539C151.11 64.5831 143.046 76.8778 129.542 85.9257C116.049 94.9653 97.3019 100.618 76.5 100.618C55.6981 100.618 36.9506 94.9653 23.4584 85.9257C9.95373 76.8778 1.89006 64.5831 1.89006 51.2539C1.89006 37.9247 9.95373 25.63 23.4584 16.5821C36.9506 7.54251 55.6981 1.89006 76.5 1.89006C97.3019 1.89006 116.049 7.54251 129.542 16.5821C143.046 25.63 151.11 37.9247 151.11 51.2539Z" fill="#FBA72B" stroke="black" stroke-width="3.78012"/>
<path d="M67.9606 28.3215C47.9188 21.7918 77.8403 13.9855 72.8838 7.87793L73.2625 8.10763C82.7473 22.2343 58.3203 20.2819 67.9606 28.3215Z" fill="black" stroke="black" stroke-width="0.386295"/>
<path d="M70.2481 25.1064L69.4907 30.0451H73.0885L73.8459 37.1658C99.5984 36.1322 112.285 50.4886 103.386 61.9737V64.6153L122.889 49.9143L115.504 49.6846L114.558 47.0431L122.889 43.5975L115.883 36.1322L106.415 38.8886L103.575 36.9361L107.93 31.3084L95.6219 27.0589L89.5625 32.1124L85.586 31.3084L84.6392 25.1064H70.2481Z" fill="black" stroke="black" stroke-width="0.386295"/>
<path d="M52.449 64.964V63.0116C46.8319 55.1849 47.65 50.8915 54.9107 43.372L56.8042 30.0492H63.2423L59.4552 26.9482L47.3364 31.1977L51.5022 36.8255L48.2832 38.6631L39.1941 36.0215L31.9985 43.372L40.5196 47.2769C39.9008 48.1055 39.6154 48.6094 39.5728 49.6888L31.9985 50.0334L52.449 64.964Z" fill="black" stroke="black" stroke-width="0.386295"/>
<path d="M125.733 82.7609V50.8323L100.927 70.0124V52.8996L75.1746 70.0124L70.63 32.4561H59.0793L54.5347 70.0124L28.7822 50.8323V82.7609H125.733Z" fill="black" stroke="black" stroke-width="0.386295"/>
<path d="M91.7246 51.1012H85.5747V53.592H89.0421V55.6166H80.8848C77.049 55.3849 76.3105 50.6371 80.1007 50.0037C80.3642 49.9596 80.6269 49.9278 80.8848 49.9068V53.592H83.7498V49.9068H91.7246C95.5389 49.1785 95.8491 44.8671 91.7246 43.8184H80.8848V47.722H79.8446C73.1476 48.494 72.5088 56.5488 79.8446 57.9034H91.7246V51.1012Z" fill="white" stroke="black" stroke-width="0.2"/>
<path d="M83.604 47.8654V46.001H91.2502C92.1809 46.3797 92.3999 47.4139 91.2502 47.8654H83.604Z" fill="#FBA72B" stroke="black" stroke-width="0.2"/>
<path d="M141.128 110.989C140.924 110.989 140.75 110.918 140.604 110.776C140.461 110.633 140.389 110.46 140.389 110.26C140.389 110.061 140.461 109.891 140.604 109.749C140.75 109.607 140.924 109.536 141.128 109.536C141.325 109.536 141.497 109.607 141.645 109.749C141.793 109.891 141.867 110.061 141.867 110.26C141.867 110.393 141.832 110.516 141.762 110.627C141.694 110.737 141.605 110.825 141.494 110.892C141.383 110.957 141.261 110.989 141.128 110.989Z" fill="white"/>
<path d="M136.711 110.908H134.475V104.683H136.729C137.364 104.683 137.91 104.807 138.368 105.057C138.825 105.304 139.177 105.659 139.424 106.124C139.672 106.588 139.796 107.143 139.796 107.789C139.796 108.438 139.672 108.995 139.424 109.461C139.177 109.928 138.823 110.285 138.361 110.535C137.902 110.784 137.351 110.908 136.711 110.908ZM135.809 109.781H136.655C137.05 109.781 137.381 109.712 137.65 109.574C137.921 109.434 138.124 109.218 138.26 108.926C138.397 108.633 138.466 108.254 138.466 107.789C138.466 107.329 138.397 106.953 138.26 106.662C138.124 106.37 137.922 106.155 137.653 106.017C137.384 105.879 137.053 105.81 136.658 105.81H135.809V109.781Z" fill="white"/>
<path d="M128.44 105.768V104.683H133.62V105.768H131.689V110.908H130.371V105.768H128.44Z" fill="white"/>
<path d="M124.547 110.908V104.683H125.88V109.823H128.584V110.908H124.547Z" fill="white"/>
<path d="M120.28 106.476C120.255 106.231 120.149 106.041 119.963 105.905C119.776 105.769 119.522 105.701 119.202 105.701C118.984 105.701 118.801 105.731 118.651 105.792C118.501 105.851 118.386 105.933 118.306 106.038C118.228 106.144 118.189 106.263 118.189 106.397C118.185 106.509 118.208 106.606 118.26 106.689C118.313 106.772 118.386 106.844 118.478 106.905C118.571 106.964 118.677 107.015 118.799 107.06C118.92 107.102 119.049 107.139 119.187 107.169L119.753 107.303C120.028 107.364 120.281 107.445 120.511 107.546C120.741 107.648 120.94 107.772 121.108 107.92C121.277 108.068 121.407 108.242 121.499 108.443C121.594 108.644 121.642 108.874 121.644 109.133C121.642 109.514 121.543 109.845 121.348 110.124C121.155 110.402 120.876 110.618 120.511 110.772C120.147 110.924 119.709 111 119.196 111C118.687 111 118.243 110.923 117.866 110.769C117.49 110.615 117.196 110.387 116.985 110.085C116.775 109.781 116.666 109.405 116.655 108.957H117.946C117.96 109.166 118.02 109.34 118.127 109.48C118.236 109.618 118.381 109.722 118.561 109.793C118.744 109.862 118.95 109.896 119.18 109.896C119.406 109.896 119.602 109.864 119.769 109.799C119.937 109.734 120.067 109.644 120.16 109.528C120.252 109.413 120.298 109.28 120.298 109.13C120.298 108.99 120.256 108.873 120.172 108.778C120.09 108.682 119.969 108.601 119.809 108.534C119.651 108.467 119.457 108.407 119.227 108.352L118.54 108.182C118.008 108.054 117.588 107.854 117.28 107.583C116.972 107.311 116.82 106.945 116.822 106.485C116.82 106.108 116.921 105.779 117.126 105.497C117.334 105.216 117.618 104.996 117.979 104.838C118.341 104.68 118.751 104.601 119.211 104.601C119.679 104.601 120.088 104.68 120.437 104.838C120.788 104.996 121.061 105.216 121.256 105.497C121.451 105.779 121.552 106.105 121.558 106.476H120.28Z" fill="white"/>
<path d="M111.548 110.908V104.683H115.797V105.768H112.881V107.251H115.579V108.337H112.881V109.823H115.81V110.908H111.548Z" fill="white"/>
<path d="M110.594 106.865H109.246C109.221 106.693 109.171 106.54 109.095 106.406C109.019 106.271 108.921 106.155 108.802 106.06C108.683 105.965 108.546 105.892 108.389 105.841C108.236 105.79 108.068 105.765 107.888 105.765C107.561 105.765 107.277 105.845 107.035 106.005C106.792 106.163 106.604 106.394 106.471 106.698C106.338 107 106.271 107.367 106.271 107.799C106.271 108.242 106.338 108.615 106.471 108.917C106.606 109.219 106.795 109.447 107.038 109.601C107.28 109.755 107.56 109.832 107.878 109.832C108.057 109.832 108.222 109.809 108.374 109.762C108.528 109.716 108.665 109.648 108.784 109.559C108.903 109.468 109.001 109.357 109.079 109.227C109.159 109.098 109.215 108.95 109.246 108.784L110.594 108.79C110.559 109.075 110.472 109.351 110.333 109.617C110.195 109.88 110.009 110.116 109.775 110.325C109.543 110.532 109.266 110.696 108.944 110.817C108.624 110.937 108.261 110.997 107.857 110.997C107.294 110.997 106.791 110.871 106.348 110.62C105.906 110.368 105.557 110.005 105.301 109.528C105.046 109.052 104.919 108.476 104.919 107.799C104.919 107.12 105.048 106.542 105.307 106.066C105.566 105.59 105.917 105.227 106.36 104.978C106.804 104.726 107.302 104.601 107.857 104.601C108.222 104.601 108.561 104.651 108.873 104.753C109.187 104.854 109.465 105.002 109.707 105.196C109.95 105.389 110.147 105.625 110.299 105.905C110.453 106.184 110.551 106.505 110.594 106.865Z" fill="white"/>
<path d="M103.932 104.683V110.908H102.599V104.683H103.932Z" fill="white"/>
<path d="M97.2503 104.683L98.7746 109.413H98.8331L100.361 104.683H101.839L99.6645 110.908H97.9462L95.769 104.683H97.2503Z" fill="white"/>
<path d="M90.5908 110.908V104.683H93.079C93.5553 104.683 93.9618 104.767 94.2985 104.935C94.6372 105.101 94.8949 105.337 95.0714 105.643C95.25 105.947 95.3393 106.305 95.3393 106.716C95.3393 107.13 95.249 107.485 95.0683 107.783C94.8877 108.079 94.6259 108.306 94.2831 108.464C93.9423 108.622 93.5296 108.701 93.0451 108.701H91.3792V107.644H92.8296C93.0841 107.644 93.2956 107.609 93.4639 107.54C93.6323 107.471 93.7575 107.368 93.8396 107.23C93.9238 107.092 93.9659 106.921 93.9659 106.716C93.9659 106.51 93.9238 106.335 93.8396 106.193C93.7575 106.052 93.6313 105.944 93.4609 105.871C93.2925 105.796 93.08 105.759 92.8234 105.759H91.9242V110.908H90.5908ZM93.9967 108.075L95.5641 110.908H94.0922L92.5586 108.075H93.9967Z" fill="white"/>
<path d="M85.2827 110.908V104.683H89.5324V105.768H86.6161V107.251H89.3137V108.337H86.6161V109.823H89.5447V110.908H85.2827Z" fill="white"/>
<path d="M83.021 106.476C82.9964 106.231 82.8906 106.041 82.7038 105.905C82.517 105.769 82.2635 105.701 81.9432 105.701C81.7256 105.701 81.5418 105.731 81.392 105.792C81.2421 105.851 81.1271 105.933 81.0471 106.038C80.9691 106.144 80.9301 106.263 80.9301 106.397C80.9259 106.509 80.9496 106.606 81.0009 106.689C81.0543 106.772 81.1271 106.844 81.2195 106.905C81.3119 106.964 81.4187 107.015 81.5398 107.06C81.6609 107.102 81.7902 107.139 81.9278 107.169L82.4944 107.303C82.7695 107.364 83.022 107.445 83.252 107.546C83.4819 107.648 83.681 107.772 83.8494 107.92C84.0177 108.068 84.1481 108.242 84.2405 108.443C84.3349 108.644 84.3831 108.874 84.3852 109.133C84.3831 109.514 84.2846 109.845 84.0896 110.124C83.8966 110.402 83.6174 110.618 83.252 110.772C82.8886 110.924 82.4503 111 81.937 111C81.4279 111 80.9845 110.923 80.6067 110.769C80.231 110.615 79.9374 110.387 79.726 110.085C79.5166 109.781 79.4067 109.405 79.3965 108.957H80.6868C80.7011 109.166 80.7617 109.34 80.8685 109.48C80.9773 109.618 81.122 109.722 81.3027 109.793C81.4854 109.862 81.6917 109.896 81.9216 109.896C82.1475 109.896 82.3435 109.864 82.5098 109.799C82.6782 109.734 82.8085 109.644 82.9009 109.528C82.9933 109.413 83.0395 109.28 83.0395 109.13C83.0395 108.99 82.9974 108.873 82.9132 108.778C82.8311 108.682 82.71 108.601 82.5498 108.534C82.3918 108.467 82.1978 108.407 81.9678 108.352L81.2811 108.182C80.7494 108.054 80.3296 107.854 80.0216 107.583C79.7137 107.311 79.5607 106.945 79.5628 106.485C79.5607 106.108 79.6623 105.779 79.8676 105.497C80.075 105.216 80.3593 104.996 80.7206 104.838C81.082 104.68 81.4926 104.601 81.9524 104.601C82.4205 104.601 82.829 104.68 83.178 104.838C83.5291 104.996 83.8022 105.216 83.9972 105.497C84.1922 105.779 84.2928 106.105 84.299 106.476H83.021Z" fill="white"/>
<path d="M75.1765 106.698C75.1334 106.55 75.0729 106.42 74.9949 106.306C74.9168 106.19 74.8214 106.093 74.7085 106.014C74.5976 105.933 74.4703 105.871 74.3266 105.829C74.185 105.786 74.0279 105.765 73.8555 105.765C73.5331 105.765 73.2498 105.844 73.0055 106.002C72.7633 106.16 72.5744 106.39 72.4389 106.692C72.3034 106.992 72.2357 107.359 72.2357 107.793C72.2357 108.226 72.3024 108.595 72.4358 108.899C72.5693 109.203 72.7581 109.435 73.0025 109.595C73.2468 109.753 73.5352 109.832 73.8678 109.832C74.1696 109.832 74.4272 109.78 74.6407 109.674C74.8563 109.567 75.0205 109.416 75.1334 109.221C75.2484 109.027 75.3059 108.797 75.3059 108.531L75.5769 108.571H73.9509V107.58H76.59V108.364C76.59 108.911 76.473 109.381 76.239 109.775C76.0049 110.166 75.6826 110.468 75.272 110.681C74.8614 110.891 74.3913 110.997 73.8616 110.997C73.2704 110.997 72.751 110.868 72.3034 110.611C71.8559 110.351 71.5069 109.983 71.2564 109.507C71.008 109.029 70.8838 108.461 70.8838 107.805C70.8838 107.3 70.9577 106.85 71.1055 106.455C71.2554 106.058 71.4648 105.721 71.7337 105.446C72.0027 105.17 72.3157 104.96 72.673 104.816C73.0302 104.673 73.4171 104.601 73.8339 104.601C74.1911 104.601 74.5237 104.652 74.8316 104.756C75.1396 104.857 75.4126 105.001 75.6508 105.187C75.891 105.374 76.087 105.596 76.239 105.853C76.3909 106.108 76.4884 106.39 76.5315 106.698H75.1765Z" fill="white"/>
<path d="M69.8913 104.683V110.908H68.7396L65.9958 106.99H65.9496V110.908H64.6162V104.683H65.7864L68.5086 108.598H68.5641V104.683H69.8913Z" fill="white"/>
<path d="M63.5199 104.683V110.908H62.1865V104.683H63.5199Z" fill="white"/>
<path d="M56.4971 110.908V104.683H58.9853C59.4616 104.683 59.868 104.767 60.2047 104.935C60.5435 105.101 60.8011 105.337 60.9777 105.643C61.1563 105.947 61.2456 106.305 61.2456 106.716C61.2456 107.13 61.1553 107.485 60.9746 107.783C60.7939 108.079 60.5322 108.306 60.1893 108.464C59.8485 108.622 59.4359 108.701 58.9514 108.701H57.2854V107.644H58.7358C58.9904 107.644 59.2019 107.609 59.3702 107.54C59.5385 107.471 59.6638 107.368 59.7459 107.23C59.8301 107.092 59.8721 106.921 59.8721 106.716C59.8721 106.51 59.8301 106.335 59.7459 106.193C59.6638 106.052 59.5375 105.944 59.3671 105.871C59.1988 105.796 58.9863 105.759 58.7297 105.759H57.8305V110.908H56.4971ZM59.9029 108.075L61.4704 110.908H59.9984L58.4648 108.075H59.9029Z" fill="white"/>
<path d="M51.1846 110.908V104.683H55.4342V105.768H52.518V107.251H55.2156V108.337H52.518V109.823H55.4465V110.908H51.1846Z" fill="white"/>
<path d="M45.877 110.908V104.683H50.1266V105.768H47.2104V107.251H49.908V108.337H47.2104V109.823H50.1389V110.908H45.877Z" fill="white"/>
<path d="M44.7746 104.683V110.908H43.6229L40.8791 106.99H40.8329V110.908H39.4995V104.683H40.6697L43.3919 108.598H43.4474V104.683H44.7746Z" fill="white"/>
<path d="M38.4023 104.683V110.908H37.0688V104.683H38.4023Z" fill="white"/>
<path d="M34.6541 106.698C34.611 106.55 34.5504 106.42 34.4724 106.306C34.3944 106.19 34.2989 106.093 34.186 106.014C34.0751 105.933 33.9479 105.871 33.8042 105.829C33.6625 105.786 33.5054 105.765 33.333 105.765C33.0107 105.765 32.7274 105.844 32.4831 106.002C32.2408 106.16 32.0519 106.39 31.9165 106.692C31.781 106.992 31.7132 107.359 31.7132 107.793C31.7132 108.226 31.7799 108.595 31.9134 108.899C32.0468 109.203 32.2357 109.435 32.48 109.595C32.7243 109.753 33.0127 109.832 33.3453 109.832C33.6471 109.832 33.9047 109.78 34.1183 109.674C34.3338 109.567 34.4981 109.416 34.611 109.221C34.7259 109.027 34.7834 108.797 34.7834 108.531L35.0544 108.571H33.4285V107.58H36.0676V108.364C36.0676 108.911 35.9505 109.381 35.7165 109.775C35.4825 110.166 35.1601 110.468 34.7495 110.681C34.339 110.891 33.8688 110.997 33.3392 110.997C32.7479 110.997 32.2285 110.868 31.781 110.611C31.3334 110.351 30.9844 109.983 30.7339 109.507C30.4855 109.029 30.3613 108.461 30.3613 107.805C30.3613 107.3 30.4352 106.85 30.583 106.455C30.7329 106.058 30.9423 105.721 31.2113 105.446C31.4802 105.17 31.7933 104.96 32.1505 104.816C32.5077 104.673 32.8947 104.601 33.3114 104.601C33.6687 104.601 34.0012 104.652 34.3092 104.756C34.6171 104.857 34.8902 105.001 35.1283 105.187C35.3685 105.374 35.5646 105.596 35.7165 105.853C35.8684 106.108 35.9659 106.39 36.009 106.698H34.6541Z" fill="white"/>
<path d="M29.3684 104.683V110.908H28.2166L25.4729 106.99H25.4267V110.908H24.0933V104.683H25.2635L27.9857 108.598H28.0411V104.683H29.3684Z" fill="white"/>
<path d="M18.7856 110.908V104.683H23.0353V105.768H20.119V107.251H22.8166V108.337H20.119V109.823H23.0476V110.908H18.7856Z" fill="white"/>
</svg>
