<svg width="131" height="86" viewBox="0 0 131 86" fill="none" xmlns="http://www.w3.org/2000/svg">
<path d="M129.11 39.5018C129.11 49.49 122.388 58.8507 110.839 65.8153C99.3273 72.758 83.302 77.1135 65.5 77.1135C47.698 77.1135 31.6727 72.758 20.1606 65.8153C8.61235 58.8507 1.89006 49.49 1.89006 39.5018C1.89006 29.5136 8.61235 20.1528 20.1606 13.1883C31.6727 6.24558 47.698 1.89006 65.5 1.89006C83.302 1.89006 99.3273 6.24558 110.839 13.1883C122.388 20.1528 129.11 29.5136 129.11 39.5018Z" fill="#FBA72B" stroke="black" stroke-width="3.78012"/>
<path d="M58.1886 21.8253C41.0286 16.7929 66.6476 10.7765 62.4039 6.06934L62.7281 6.24637C70.8491 17.1339 49.9345 15.6292 58.1886 21.8253Z" fill="black" stroke="black" stroke-width="0.386295"/>
<path d="M60.1471 19.3467L59.4985 23.1529H62.579L63.2275 28.6409C85.277 27.8443 96.1396 38.9089 88.5196 47.7606V49.7965L105.219 38.4663L98.8958 38.2893L98.0852 36.2534L105.219 33.5979L99.2201 27.8443L91.1136 29.9687L88.6817 28.4639L92.4107 24.1266L81.8723 20.8515L76.6842 24.7462L73.2795 24.1266L72.4688 19.3467H60.1471Z" fill="black" stroke="black" stroke-width="0.386295"/>
<path d="M44.9069 50.0647V48.5599C40.0974 42.5278 40.7979 39.2189 47.0145 33.4235L48.6358 23.1556H54.1482L50.9056 20.7656L40.5294 24.0407L44.0962 28.3781L41.34 29.7943L33.5579 27.7585L27.397 33.4235L34.6928 36.4331C34.163 37.0717 33.9186 37.46 33.8821 38.292L27.397 38.5575L44.9069 50.0647Z" fill="black" stroke="black" stroke-width="0.386295"/>
<path d="M107.653 63.7821V39.1744L86.4141 53.9567V40.7677L64.3646 53.9567L60.4735 25.0117H50.5837L46.6926 53.9567L24.6431 39.1744V63.7821H107.653Z" fill="black" stroke="black" stroke-width="0.386295"/>
<path d="M78.5356 39.3844H73.2701V41.3041H76.2389V42.8645H69.2545C66.0513 42.6903 65.499 38.9673 68.6763 38.5251C68.8706 38.498 69.0641 38.4779 69.2545 38.4639V41.3041H71.7076V38.4639H78.5356C81.8015 37.9026 82.0671 34.5797 78.5356 33.7715H69.2545V36.78H68.3639C62.6299 37.375 62.083 43.5829 68.3639 44.6269H78.5356V39.3844Z" fill="white" stroke="black" stroke-width="0.2"/>
<path d="M71.582 36.892V35.4551H78.1288C78.9257 35.747 79.1132 36.544 78.1288 36.892H71.582Z" fill="#FBA72B" stroke="black" stroke-width="0.2"/>
<path d="M120.835 85.5408C120.661 85.5408 120.512 85.4862 120.387 85.3768C120.264 85.2659 120.203 85.1331 120.203 84.9785C120.203 84.8254 120.264 84.6942 120.387 84.5849C120.512 84.4756 120.661 84.4209 120.835 84.4209C121.004 84.4209 121.152 84.4756 121.278 84.5849C121.405 84.6942 121.468 84.8254 121.468 84.9785C121.468 85.0816 121.438 85.1761 121.379 85.262C121.321 85.3464 121.244 85.4143 121.149 85.4658C121.054 85.5158 120.95 85.5408 120.835 85.5408Z" fill="black"/>
<path d="M117.053 85.478H115.139V80.6797H117.069C117.612 80.6797 118.079 80.7757 118.471 80.9679C118.863 81.1584 119.165 81.4325 119.376 81.7902C119.588 82.1479 119.695 82.5759 119.695 83.0742C119.695 83.574 119.588 84.0035 119.376 84.3628C119.165 84.722 118.862 84.9977 118.466 85.1898C118.072 85.382 117.601 85.478 117.053 85.478ZM116.28 84.6088H117.005C117.343 84.6088 117.627 84.5557 117.857 84.4495C118.089 84.3417 118.263 84.1753 118.379 83.9504C118.497 83.7239 118.556 83.4319 118.556 83.0742C118.556 82.7196 118.497 82.4299 118.379 82.2049C118.263 81.98 118.09 81.8144 117.86 81.7082C117.629 81.602 117.346 81.5489 117.008 81.5489H116.28V84.6088Z" fill="black"/>
<path d="M109.972 81.5161V80.6797H114.407V81.5161H112.753V85.478H111.625V81.5161H109.972Z" fill="black"/>
<path d="M106.639 85.478V80.6797H107.78V84.6416H110.095V85.478H106.639Z" fill="black"/>
<path d="M102.985 82.0628C102.964 81.8738 102.874 81.727 102.714 81.6223C102.554 81.5177 102.337 81.4653 102.062 81.4653C101.876 81.4653 101.719 81.4888 101.59 81.5356C101.462 81.5809 101.364 81.6442 101.295 81.7254C101.228 81.8066 101.195 81.8988 101.195 82.0019C101.191 82.0878 101.212 82.1627 101.256 82.2268C101.301 82.2908 101.364 82.3463 101.443 82.3931C101.522 82.4384 101.613 82.4783 101.717 82.5126C101.821 82.5454 101.931 82.5735 102.049 82.597L102.534 82.7001C102.77 82.7469 102.986 82.8094 103.183 82.8875C103.38 82.9656 103.55 83.0616 103.694 83.1757C103.839 83.2897 103.95 83.424 104.029 83.5787C104.11 83.7333 104.151 83.9106 104.153 84.1105C104.151 84.4041 104.067 84.6587 103.9 84.8743C103.735 85.0883 103.496 85.2546 103.183 85.3733C102.872 85.4905 102.497 85.5491 102.057 85.5491C101.621 85.5491 101.241 85.4897 100.918 85.371C100.596 85.2523 100.345 85.0766 100.164 84.8438C99.9847 84.6095 99.8906 84.3198 99.8818 83.9746H100.987C100.999 84.1355 101.051 84.2698 101.142 84.3776C101.235 84.4838 101.359 84.5642 101.514 84.6189C101.67 84.672 101.847 84.6986 102.044 84.6986C102.237 84.6986 102.405 84.6736 102.547 84.6236C102.692 84.5736 102.803 84.5041 102.882 84.4151C102.961 84.326 103.001 84.2237 103.001 84.1082C103.001 84.0004 102.965 83.9098 102.893 83.8364C102.823 83.763 102.719 83.7005 102.582 83.6489C102.446 83.5974 102.28 83.5505 102.083 83.5084L101.495 83.3772C101.04 83.2788 100.681 83.1249 100.417 82.9156C100.153 82.7063 100.022 82.4244 100.024 82.0698C100.022 81.7793 100.109 81.5255 100.285 81.3084C100.463 81.0912 100.706 80.9218 101.016 80.7999C101.325 80.6781 101.677 80.6172 102.07 80.6172C102.471 80.6172 102.821 80.6781 103.12 80.7999C103.42 80.9218 103.654 81.0912 103.821 81.3084C103.988 81.5255 104.074 81.7769 104.079 82.0628H102.985Z" fill="black"/>
<path d="M95.5088 85.478V80.6797H99.1474V81.5161H96.6505V82.6595H98.9602V83.4959H96.6505V84.6416H99.1579V85.478H95.5088Z" fill="black"/>
<path d="M94.6924 82.3627H93.5375C93.5164 82.2299 93.4733 82.112 93.4083 82.0089C93.3433 81.9042 93.2598 81.8152 93.1578 81.7418C93.0559 81.6684 92.9381 81.6122 92.8045 81.5731C92.6727 81.5341 92.5294 81.5145 92.3747 81.5145C92.0953 81.5145 91.8518 81.5762 91.6444 81.6996C91.437 81.8215 91.2761 81.9995 91.1619 82.2338C91.0476 82.4665 90.9905 82.7493 90.9905 83.082C90.9905 83.424 91.0476 83.7114 91.1619 83.9441C91.2779 84.1769 91.4396 84.3526 91.647 84.4713C91.8544 84.59 92.0944 84.6494 92.3668 84.6494C92.5198 84.6494 92.6613 84.6314 92.7913 84.5955C92.9232 84.5596 93.0401 84.5072 93.142 84.4385C93.244 84.3682 93.3283 84.2831 93.3951 84.1831C93.4637 84.0832 93.5111 83.9691 93.5375 83.8411L94.6924 83.8457C94.6625 84.066 94.5878 84.2784 94.4682 84.483C94.3505 84.6861 94.1914 84.868 93.991 85.0289C93.7924 85.1882 93.5551 85.3148 93.2791 85.4085C93.0049 85.5006 92.6947 85.5467 92.3484 85.5467C91.8667 85.5467 91.4361 85.4499 91.0564 85.2562C90.6785 85.0625 90.3797 84.7821 90.16 84.4151C89.942 84.048 89.833 83.6036 89.833 83.082C89.833 82.5587 89.9437 82.1135 90.1652 81.7465C90.3867 81.3794 90.6873 81.0998 91.067 80.9077C91.4466 80.714 91.8738 80.6172 92.3484 80.6172C92.6613 80.6172 92.9513 80.6562 93.2185 80.7343C93.4874 80.8124 93.7256 80.9265 93.933 81.0764C94.1404 81.2248 94.3092 81.4068 94.4392 81.6223C94.5711 81.8379 94.6554 82.0846 94.6924 82.3627Z" fill="black"/>
<path d="M88.9879 80.6797V85.478H87.8462V80.6797H88.9879Z" fill="black"/>
<path d="M83.2673 80.6797L84.5724 84.3253H84.6225L85.9303 80.6797H87.1959L85.3344 85.478H83.8631L81.999 80.6797H83.2673Z" fill="black"/>
<path d="M77.5654 85.478V80.6797H79.6958C80.1036 80.6797 80.4517 80.7445 80.74 80.8742C81.03 81.0022 81.2506 81.1842 81.4018 81.4201C81.5547 81.6543 81.6312 81.93 81.6312 82.2471C81.6312 82.5657 81.5538 82.8399 81.3991 83.0695C81.2444 83.2975 81.0203 83.4725 80.7268 83.5943C80.435 83.7161 80.0817 83.777 79.6668 83.777H78.2404V82.9617H79.4823C79.7002 82.9617 79.8813 82.9351 80.0254 82.882C80.1696 82.8289 80.2768 82.7493 80.3471 82.6431C80.4192 82.5369 80.4552 82.4049 80.4552 82.2471C80.4552 82.0878 80.4192 81.9535 80.3471 81.8441C80.2768 81.7348 80.1687 81.652 80.0228 81.5958C79.8787 81.538 79.6967 81.5091 79.477 81.5091H78.7071V85.478H77.5654ZM80.4816 83.2944L81.8236 85.478H80.5633L79.2502 83.2944H80.4816Z" fill="black"/>
<path d="M73.0205 85.478V80.6797H76.6591V81.5161H74.1622V82.6595H76.4719V83.4959H74.1622V84.6416H76.6696V85.478H73.0205Z" fill="black"/>
<path d="M71.0838 82.0628C71.0627 81.8738 70.9722 81.727 70.8122 81.6223C70.6523 81.5177 70.4352 81.4653 70.161 81.4653C69.9747 81.4653 69.8173 81.4888 69.689 81.5356C69.5607 81.5809 69.4623 81.6442 69.3937 81.7254C69.3269 81.8066 69.2935 81.8988 69.2935 82.0019C69.29 82.0878 69.3102 82.1627 69.3542 82.2268C69.3999 82.2908 69.4623 82.3463 69.5414 82.3931C69.6205 82.4384 69.7119 82.4783 69.8156 82.5126C69.9193 82.5454 70.03 82.5735 70.1478 82.597L70.6329 82.7001C70.8685 82.7469 71.0847 82.8094 71.2816 82.8875C71.4784 82.9656 71.6489 83.0616 71.7931 83.1757C71.9372 83.2897 72.0488 83.424 72.1279 83.5787C72.2088 83.7333 72.2501 83.9106 72.2518 84.1105C72.2501 84.4041 72.1657 84.6587 71.9987 84.8743C71.8335 85.0883 71.5944 85.2546 71.2816 85.3733C70.9704 85.4905 70.5952 85.5491 70.1557 85.5491C69.7198 85.5491 69.3401 85.4897 69.0167 85.371C68.695 85.2523 68.4436 85.0766 68.2626 84.8438C68.0833 84.6095 67.9893 84.3198 67.9805 83.9746H69.0852C69.0975 84.1355 69.1494 84.2698 69.2408 84.3776C69.334 84.4838 69.4579 84.5642 69.6126 84.6189C69.769 84.672 69.9457 84.6986 70.1425 84.6986C70.3359 84.6986 70.5037 84.6736 70.6461 84.6236C70.7903 84.5736 70.9019 84.5041 70.981 84.4151C71.0601 84.326 71.0996 84.2237 71.0996 84.1082C71.0996 84.0004 71.0636 83.9098 70.9915 83.8364C70.9212 83.763 70.8175 83.7005 70.6804 83.6489C70.5451 83.5974 70.3789 83.5505 70.1821 83.5084L69.5941 83.3772C69.1388 83.2788 68.7794 83.1249 68.5157 82.9156C68.252 82.7063 68.1211 82.4244 68.1228 82.0698C68.1211 81.7793 68.2081 81.5255 68.3839 81.3084C68.5614 81.0912 68.8049 80.9218 69.1142 80.7999C69.4236 80.6781 69.7752 80.6172 70.1689 80.6172C70.5697 80.6172 70.9195 80.6781 71.2183 80.7999C71.5189 80.9218 71.7526 81.0912 71.9196 81.3084C72.0866 81.5255 72.1727 81.7769 72.178 82.0628H71.0838Z" fill="black"/>
<path d="M64.3674 82.2338C64.3305 82.1198 64.2786 82.019 64.2118 81.9316C64.145 81.8425 64.0633 81.7676 63.9666 81.7067C63.8717 81.6442 63.7627 81.5965 63.6397 81.5637C63.5184 81.5309 63.3839 81.5145 63.2363 81.5145C62.9603 81.5145 62.7177 81.5754 62.5085 81.6973C62.3011 81.8191 62.1394 81.9964 62.0234 82.2291C61.9074 82.4603 61.8494 82.743 61.8494 83.0773C61.8494 83.4115 61.9065 83.6958 62.0208 83.9301C62.135 84.1644 62.2967 84.3432 62.5059 84.4666C62.7151 84.5885 62.9621 84.6494 63.2468 84.6494C63.5052 84.6494 63.7258 84.6088 63.9086 84.5275C64.0932 84.4448 64.2338 84.3284 64.3305 84.1784C64.4289 84.0285 64.4781 83.8512 64.4781 83.6466L64.7102 83.6771H63.318V82.9133H65.5776V83.5177C65.5776 83.9395 65.4774 84.3018 65.277 84.6049C65.0767 84.9063 64.8007 85.139 64.4491 85.3031C64.0976 85.4655 63.695 85.5467 63.2415 85.5467C62.7353 85.5467 62.2906 85.4475 61.9074 85.2492C61.5242 85.0492 61.2254 84.7657 61.0109 84.3987C60.7982 84.0301 60.6919 83.5927 60.6919 83.0866C60.6919 82.6977 60.7552 82.351 60.8817 82.0464C61.01 81.7402 61.1893 81.4809 61.4196 81.2685C61.6499 81.0561 61.9179 80.8944 62.2238 80.7835C62.5296 80.6726 62.861 80.6172 63.2178 80.6172C63.5237 80.6172 63.8084 80.657 64.0721 80.7367C64.3358 80.8148 64.5695 80.9257 64.7734 81.0694C64.9791 81.2131 65.147 81.3841 65.277 81.5825C65.4071 81.7793 65.4906 81.9964 65.5275 82.2338H64.3674Z" fill="black"/>
<path d="M59.8423 80.6797V85.478H58.8562L56.5069 82.458H56.4674V85.478H55.3257V80.6797H56.3276L58.6584 83.6974H58.7059V80.6797H59.8423Z" fill="black"/>
<path d="M54.3868 80.6797V85.478H53.2451V80.6797H54.3868Z" fill="black"/>
<path d="M48.3735 85.478V80.6797H50.504C50.9118 80.6797 51.2598 80.7445 51.5481 80.8742C51.8381 81.0022 52.0587 81.1842 52.2099 81.4201C52.3628 81.6543 52.4393 81.93 52.4393 82.2471C52.4393 82.5657 52.3619 82.8399 52.2072 83.0695C52.0525 83.2975 51.8284 83.4725 51.5349 83.5943C51.2431 83.7161 50.8898 83.777 50.475 83.777H49.0485V82.9617H50.2904C50.5083 82.9617 50.6894 82.9351 50.8335 82.882C50.9777 82.8289 51.0849 82.7493 51.1552 82.6431C51.2273 82.5369 51.2633 82.4049 51.2633 82.2471C51.2633 82.0878 51.2273 81.9535 51.1552 81.8441C51.0849 81.7348 50.9768 81.652 50.8309 81.5958C50.6868 81.538 50.5048 81.5091 50.2851 81.5091H49.5152V85.478H48.3735ZM51.2897 83.2944L52.6317 85.478H51.3714L50.0584 83.2944H51.2897Z" fill="black"/>
<path d="M43.8252 85.478V80.6797H47.4638V81.5161H44.9669V82.6595H47.2766V83.4959H44.9669V84.6416H47.4743V85.478H43.8252Z" fill="black"/>
<path d="M39.2803 85.478V80.6797H42.9189V81.5161H40.4219V82.6595H42.7317V83.4959H40.4219V84.6416H42.9294V85.478H39.2803Z" fill="black"/>
<path d="M38.3364 80.6797V85.478H37.3503L35.001 82.458H34.9615V85.478H33.8198V80.6797H34.8218L37.1526 83.6974H37.2V80.6797H38.3364Z" fill="black"/>
<path d="M32.8809 80.6797V85.478H31.7393V80.6797H32.8809Z" fill="black"/>
<path d="M29.6716 82.2338C29.6347 82.1198 29.5828 82.019 29.516 81.9316C29.4492 81.8425 29.3675 81.7676 29.2708 81.7067C29.1759 81.6442 29.0669 81.5965 28.9439 81.5637C28.8226 81.5309 28.6881 81.5145 28.5405 81.5145C28.2645 81.5145 28.0219 81.5754 27.8127 81.6973C27.6053 81.8191 27.4436 81.9964 27.3276 82.2291C27.2116 82.4603 27.1536 82.743 27.1536 83.0773C27.1536 83.4115 27.2107 83.6958 27.325 83.9301C27.4392 84.1644 27.6009 84.3432 27.8101 84.4666C28.0193 84.5885 28.2663 84.6494 28.551 84.6494C28.8094 84.6494 29.03 84.6088 29.2128 84.5275C29.3974 84.4448 29.538 84.3284 29.6347 84.1784C29.7331 84.0285 29.7823 83.8512 29.7823 83.6466L30.0144 83.6771H28.6222V82.9133H30.8818V83.5177C30.8818 83.9395 30.7816 84.3018 30.5812 84.6049C30.3808 84.9063 30.1049 85.139 29.7533 85.3031C29.4018 85.4655 28.9992 85.5467 28.5457 85.5467C28.0395 85.5467 27.5948 85.4475 27.2116 85.2492C26.8284 85.0492 26.5296 84.7657 26.3151 84.3987C26.1024 84.0301 25.9961 83.5927 25.9961 83.0866C25.9961 82.6977 26.0594 82.351 26.1859 82.0464C26.3142 81.7402 26.4935 81.4809 26.7238 81.2685C26.9541 81.0561 27.2221 80.8944 27.528 80.7835C27.8338 80.6726 28.1652 80.6172 28.522 80.6172C28.8279 80.6172 29.1126 80.657 29.3763 80.7367C29.6399 80.8148 29.8737 80.9257 30.0776 81.0694C30.2833 81.2131 30.4512 81.3841 30.5812 81.5825C30.7113 81.7793 30.7948 81.9964 30.8317 82.2338H29.6716Z" fill="black"/>
<path d="M25.146 80.6797V85.478H24.1599L21.8106 82.458H21.7711V85.478H20.6294V80.6797H21.6313L23.9621 83.6974H24.0096V80.6797H25.146Z" fill="black"/>
<path d="M16.0845 85.478V80.6797H19.7231V81.5161H17.2261V82.6595H19.5359V83.4959H17.2261V84.6416H19.7336V85.478H16.0845Z" fill="black"/>
</svg>
